<svg width="1024" height="1024" viewBox="0 0 1024 1024" fill="none" xmlns="http://www.w3.org/2000/svg">
<path d="M219 253C218.202 253.553 217.404 254.106 216.582 254.676C206.192 262.303 196.723 272.007 190 283C189.357 284.011 188.714 285.021 188.051 286.063C174.824 307.83 169.859 332.589 169.832 357.832C169.829 358.944 169.825 360.057 169.822 361.203C169.817 363.55 169.815 365.898 169.815 368.245C169.813 371.764 169.794 375.283 169.775 378.803C169.748 389.435 169.883 399.994 170.875 410.586C170.989 411.808 170.989 411.808 171.106 413.055C174.08 441.036 187.747 468.238 209.07 486.738C212.578 489.446 216.195 491.882 219.938 494.25C220.885 494.851 220.885 494.851 221.852 495.463C232.15 501.761 243.457 505.769 254.75 509.875C256.373 510.469 257.995 511.063 259.617 511.657C264.324 513.38 269.033 515.097 273.742 516.813C279.793 519.018 285.842 521.226 291.891 523.434C293.874 524.157 295.858 524.881 297.841 525.605C299.186 526.096 300.531 526.587 301.876 527.078C305.287 528.323 308.698 529.567 312.109 530.812C335.959 539.512 359.791 548.261 383.589 557.104C385.169 557.691 386.749 558.278 388.329 558.865C398.233 562.542 408.123 566.253 418 570C419.305 570.492 420.611 570.985 421.917 571.477C425.763 572.928 429.6 574.4 433.438 575.875C434.575 576.303 435.713 576.732 436.885 577.173C449.388 582.028 458.437 588.123 464.313 600.5C471.689 618.658 470.927 641.922 464.898 660.371C463.75 663.042 462.479 665.499 461 668C460.616 668.723 460.232 669.446 459.836 670.191C455.068 677.899 445.66 681.955 437.091 684.073C431.021 685.369 424.991 685.287 418.808 685.275C417.512 685.28 416.217 685.285 414.882 685.29C411.351 685.304 407.819 685.304 404.288 685.302C401.326 685.301 398.365 685.305 395.403 685.31C388.406 685.321 381.409 685.322 374.412 685.316C367.228 685.31 360.044 685.322 352.86 685.343C346.664 685.361 340.467 685.367 334.271 685.364C330.583 685.362 326.895 685.364 323.207 685.378C319.084 685.393 314.962 685.384 310.839 685.372C309.641 685.38 308.443 685.388 307.209 685.395C293.047 685.309 279.286 682.699 268.063 673.625C259.305 662.48 256.614 651.282 255.771 637.298C255.33 630.666 255.33 630.666 252 625C248.954 623.985 246.899 623.873 243.713 623.871C242.63 623.867 241.547 623.864 240.431 623.861C239.256 623.863 238.082 623.865 236.871 623.867C235.653 623.866 234.435 623.865 233.179 623.864C230.589 623.864 227.999 623.865 225.409 623.87C221.505 623.875 217.601 623.87 213.697 623.863C206.464 623.859 199.233 623.913 192 624C191.013 624.008 190.026 624.016 189.009 624.024C186.453 624.053 183.902 624.116 181.348 624.195C180.267 624.203 180.267 624.203 179.165 624.211C175.838 624.357 174.349 624.62 172.061 627.113C170.786 630.582 170.644 633.299 170.672 636.996C170.674 637.666 170.676 638.336 170.678 639.026C170.684 640.444 170.698 641.862 170.719 643.28C170.749 645.4 170.76 647.519 170.766 649.639C170.836 662.441 171.227 674.958 174.625 687.375C174.891 688.362 175.157 689.349 175.43 690.365C181.215 711.059 191.508 728.254 206 744C207.033 745.156 207.033 745.156 208.086 746.336C216.104 754.895 226.785 761.38 237 767C237.755 767.418 238.511 767.835 239.289 768.266C261.632 779.473 287.448 780.909 311.938 781.562C313.484 781.607 315.031 781.651 316.578 781.696C326.255 781.962 335.923 782.101 345.603 781.875C349.688 781.816 352.448 781.992 356 784C356.33 783.34 356.66 782.68 357 782C358.65 782.33 360.3 782.66 362 783C362 782.34 362 781.68 362 781C362.831 781.072 363.663 781.144 364.52 781.219C365.606 781.312 366.693 781.404 367.812 781.5C368.891 781.593 369.97 781.686 371.082 781.781C374.791 782.059 378.468 781.981 382.184 781.93C384.268 781.911 386.353 781.893 388.438 781.875C389.487 781.858 390.537 781.841 391.619 781.824C393.136 781.815 393.136 781.815 394.684 781.805C396.069 781.789 396.069 781.789 397.482 781.773C400.12 782.011 401.738 782.661 404 784C404.99 783.34 405.98 782.68 407 782C409.043 781.805 409.043 781.805 411.188 781.875C412.446 781.916 413.704 781.957 415 782C415 782.33 415 782.66 415 783C416.98 783 418.96 783 421 783C421 782.67 421 782.34 421 782C421.865 781.935 422.729 781.871 423.62 781.804C458.002 779.144 487.872 772.826 515 750C515.643 749.491 516.286 748.982 516.949 748.457C518.339 747.352 519.677 746.184 521 745C521 744.34 521 743.68 521 743C521.99 742.67 522.98 742.34 524 742C525.654 740.181 527.145 738.391 528.625 736.438C529.062 735.862 529.5 735.286 529.95 734.693C547.346 711.195 553.668 685.934 553.531 657.066C553.534 655.012 553.538 652.957 553.543 650.902C553.549 646.627 553.54 642.352 553.521 638.077C553.499 632.657 553.512 627.238 553.536 621.818C553.55 617.583 553.546 613.349 553.535 609.115C553.533 607.119 553.536 605.123 553.545 603.128C553.665 570.826 544.877 541.997 521.938 518.438C503.809 500.516 479.752 489.951 456.179 481.192C451.56 479.46 446.968 477.657 442.373 475.862C426.96 469.843 411.474 464.023 395.967 458.251C388.797 455.579 381.649 452.88 374.562 449.992C368.12 447.39 361.602 445.08 355.036 442.812C345.285 439.431 335.63 435.802 325.972 432.166C322.872 430.999 319.77 429.835 316.668 428.672C311.704 426.809 306.743 424.936 301.786 423.056C299.953 422.361 298.12 421.668 296.286 420.976C293.791 420.032 291.3 419.082 288.809 418.129C287.719 417.719 287.719 417.719 286.608 417.3C281.359 415.277 277.009 412.955 273 409C272.113 408.134 271.226 407.268 270.313 406.375C260.25 393.186 259.958 374.914 261.702 359.094C262.917 350.553 265.645 343.693 271 337C271 336.34 271 335.68 271 335C271.66 335 272.32 335 273 335C273 334.34 273 333.68 273 333C274.052 332.598 274.052 332.598 275.125 332.188C278.005 331.081 278.005 331.081 280.5 329.5C290.59 325.176 302.131 325.709 312.929 325.741C314.483 325.739 316.036 325.735 317.59 325.731C321.77 325.722 325.949 325.725 330.128 325.731C334.522 325.736 338.915 325.732 343.308 325.729C350.678 325.725 358.048 325.73 365.418 325.739C373.922 325.75 382.425 325.747 390.928 325.736C398.254 325.727 405.58 325.725 412.906 325.73C417.27 325.734 421.635 325.734 426 325.727C430.1 325.722 434.201 325.726 438.302 325.737C439.801 325.74 441.3 325.739 442.799 325.735C450.457 325.714 457.577 325.943 465 328C465.969 328.248 466.939 328.495 467.938 328.75C470 330 470 330 471.25 332.563C472.839 339.845 473.144 347.072 473.098 354.504C473.096 355.408 473.095 356.312 473.093 357.243C473.089 359.191 473.083 361.139 473.075 363.087C473.062 366.183 473.056 369.28 473.051 372.376C473.038 380.07 473.014 387.763 472.99 395.456C472.97 401.961 472.954 408.465 472.944 414.97C472.938 417.996 472.925 421.021 472.912 424.047C472.889 432.221 472.895 440.393 473.316 448.558C473.403 450.263 473.403 450.263 473.49 452.001C474.054 455.318 475.017 457.301 477 460C479.369 461.477 479.369 461.477 482.172 462.473C483.74 463.1 483.74 463.1 485.34 463.74C486.466 464.176 487.591 464.613 488.75 465.063C519.508 477.575 546.274 493.602 566 521C566.814 522.071 567.633 523.139 568.457 524.203C572.38 529.278 576.286 534.362 580.125 539.5C584.318 545.111 588.563 550.682 592.813 556.25C600.324 566.096 607.767 575.991 615.176 585.914C619.293 591.419 623.444 596.894 627.619 602.355C635.868 613.15 643.972 624.04 652 635C659.042 644.605 666.101 654.181 673.398 663.594C677.15 668.472 680.76 673.455 684.397 678.419C688.944 684.606 693.58 690.718 698.25 696.813C702.996 703.009 707.655 709.241 712.143 715.626C715.883 720.911 719.813 726.047 723.75 731.188C728.998 738.04 734.199 744.921 739.313 751.875C739.883 752.65 740.454 753.425 741.042 754.224C743.763 757.927 746.466 761.642 749.141 765.379C749.635 766.065 750.13 766.752 750.639 767.459C751.553 768.73 752.461 770.004 753.363 771.283C756.274 775.322 759.17 779.208 764.134 780.597C767.883 781.124 771.587 781.123 775.363 781.098C776.155 781.096 776.947 781.095 777.763 781.093C780.28 781.088 782.796 781.075 785.313 781.062C787.024 781.057 788.736 781.053 790.447 781.049C794.632 781.038 798.816 781.021 803 781C803.33 781.66 803.66 782.32 804 783C804 782.34 804 781.68 804 781C805.015 781.165 806.029 781.33 807.074 781.5C814.282 782.402 821.574 782.053 828.823 781.979C830.763 781.961 832.704 781.949 834.645 781.938C836.367 781.92 836.367 781.92 838.124 781.902C841 782 841 782 844 783C844 782.34 844 781.68 844 781C850.6 781.33 857.2 781.66 864 782C864 782.33 864 782.66 864 783C865.65 783 867.3 783 869 783C869 782.67 869 782.34 869 782C876.26 782 883.52 782 891 782C891.33 781.34 891.66 780.68 892 780C885.303 770.641 878.567 761.336 871.508 752.246C867.152 746.63 862.922 740.917 858.666 735.225C856.912 732.882 855.154 730.542 853.395 728.203C846.573 719.129 839.793 710.027 833.07 700.879C826.692 692.208 820.223 683.606 813.746 675.008C809.764 669.713 805.816 664.395 801.894 659.055C796.498 651.71 791.054 644.417 785.473 637.211C781.14 631.604 776.918 625.913 772.674 620.238C769.62 616.156 766.56 612.078 763.5 608C762.223 606.297 760.945 604.594 759.668 602.891C758.741 601.654 758.741 601.654 757.794 600.393C708.199 534.266 708.199 534.266 706.711 532.282C705.691 530.921 704.671 529.561 703.65 528.201C701.105 524.809 698.562 521.416 696.023 518.02C690.966 511.258 685.883 504.517 680.75 497.813C680.22 497.12 679.69 496.427 679.144 495.714C676.773 492.618 674.401 489.523 672.028 486.43C645.103 451.324 645.103 451.324 644.875 446.188C648.266 436.581 659.124 428.839 666.232 421.895C667.103 421.035 667.974 420.175 668.871 419.289C669.664 418.513 670.458 417.736 671.275 416.936C673.222 415.183 673.222 415.183 673 413C673.66 413 674.32 413 675 413C676.309 411.705 676.309 411.705 677.711 409.914C681.237 405.767 684.993 401.919 688.852 398.086C689.79 397.153 689.79 397.153 690.747 396.201C692.704 394.257 694.664 392.316 696.625 390.375C699.224 387.802 701.82 385.227 704.414 382.648C705.001 382.07 705.587 381.492 706.192 380.896C709.69 377.419 712.88 373.821 716 370C717.641 368.308 719.312 366.645 721 365C724.11 361.944 727.212 358.879 730.313 355.813C731.566 354.584 731.566 354.584 732.846 353.33C733.635 352.547 734.425 351.764 735.238 350.957C735.961 350.245 736.683 349.533 737.427 348.8C739.219 347.147 739.219 347.147 739 345C739.557 344.794 740.114 344.588 740.688 344.375C743.228 342.864 744.765 341.061 746.559 338.73C749.808 334.83 753.614 331.389 757.226 327.826C759.364 325.714 761.498 323.596 763.631 321.479C764.759 320.361 765.889 319.245 767.021 318.13C768.66 316.515 770.294 314.893 771.926 313.27C772.69 312.521 772.69 312.521 773.469 311.758C774.685 310.542 775.848 309.275 777 308C777 307.34 777 306.68 777 306C777.66 306 778.32 306 779 306C779 305.34 779 304.68 779 304C780.485 303.505 780.485 303.505 782 303C783.427 301.59 783.427 301.59 784.848 299.773C788.176 295.849 791.713 292.214 795.371 288.602C796.227 287.754 796.227 287.754 797.101 286.889C799.489 284.528 801.88 282.172 804.276 279.82C806.041 278.085 807.8 276.344 809.559 274.602C810.105 274.068 810.652 273.535 811.215 272.986C812.515 271.695 813.763 270.352 815 269C815 268.34 815 267.68 815 267C815.66 267 816.32 267 817 267C818.296 265.718 818.296 265.718 819.688 263.938C824.135 258.664 829.072 253.903 834.02 249.105C834.662 248.475 835.304 247.845 835.965 247.195C836.549 246.628 837.133 246.061 837.734 245.477C839.217 244.071 839.217 244.071 839 242C839.66 242 840.32 242 841 242C841 241.34 841 240.68 841 240C841.578 239.794 842.155 239.588 842.75 239.375C845.814 237.503 847.155 235.03 849 232C847.459 230.459 846.032 230.862 843.885 230.846C842.998 230.838 842.11 230.829 841.196 230.82C840.215 230.816 839.234 230.812 838.223 230.807C837.195 230.799 836.167 230.791 835.109 230.782C831.688 230.757 828.268 230.741 824.848 230.727C823.681 230.721 822.514 230.716 821.311 230.71C815.127 230.684 808.943 230.664 802.759 230.65C796.38 230.633 790.001 230.589 783.623 230.538C778.713 230.504 773.803 230.492 768.893 230.487C766.543 230.48 764.193 230.465 761.843 230.441C758.542 230.409 755.243 230.409 751.942 230.417C750.979 230.4 750.016 230.384 749.023 230.367C739.613 230.453 732.24 234.088 725.648 240.793C724.778 241.67 723.908 242.547 723.012 243.451C721.707 244.806 721.707 244.806 720.375 246.188C719.466 247.102 718.557 248.017 717.621 248.959C713.036 252.865 713.036 252.865 711 258C710.134 258.371 710.134 258.371 709.25 258.75C706.671 260.183 704.939 261.784 703 264C703 264.66 703 265.32 703 266C702.438 266.237 701.876 266.474 701.297 266.719C698.481 268.29 696.52 270.215 694.25 272.5C693.051 273.691 693.051 273.691 691.828 274.906C689.781 276.788 689.781 276.788 690 279C689.34 279 688.68 279 688 279C684.177 282.44 684.177 282.44 682 287C681.34 287 680.68 287 680 287C678.492 288.526 678.492 288.526 677 290.438C674.203 293.898 674.203 293.898 672 295C672 295.66 672 296.32 672 297C671.443 297.227 670.886 297.454 670.313 297.688C667.338 299.376 665.28 301.467 663 304C663 304.66 663 305.32 663 306C662.462 306.21 661.925 306.42 661.371 306.637C658.097 308.519 655.668 311.122 653.063 313.813C652.294 314.595 652.294 314.595 651.51 315.393C650.494 316.426 649.482 317.463 648.473 318.502C647.05 319.95 645.586 321.357 644.121 322.762C641.771 324.728 641.771 324.728 642 327C641.423 327.227 640.845 327.454 640.25 327.688C637.404 329.348 636.002 331.392 634 334C631.417 336.71 629.119 338.921 626 341C626 341.66 626 342.32 626 343C625.34 343 624.68 343 624 343C622.696 344.325 622.696 344.325 621.375 346.063C618.419 349.662 615.138 352.575 611.539 355.52C611.031 356.008 610.523 356.497 610 357C610 357.66 610 358.32 610 359C609.01 359.33 608.02 359.66 607 360C607 360.66 607 361.32 607 362C606.34 362 605.68 362 605 362C602.359 364.432 600.048 366.94 597.813 369.75C596 372 596 372 594 373C594 373.66 594 374.32 594 375C593.01 375.33 592.02 375.66 591 376C591 376.66 591 377.32 591 378C590.34 378 589.68 378 589 378C585.177 381.44 585.177 381.44 583 386C582.34 386 581.68 386 581 386C578.488 388.314 576.26 390.659 574.188 393.375C571.675 396.39 568.889 398.818 565.902 401.352C563.993 402.941 563.993 402.941 562.453 404.699C561 406 561 406 557.813 406.188C556.884 406.126 555.956 406.064 555 406C553.925 402.497 553.87 399.259 553.862 395.606C553.857 394.289 553.851 392.973 553.845 391.617C553.844 390.159 553.843 388.702 553.842 387.245C553.838 385.709 553.833 384.173 553.827 382.637C553.816 379.33 553.807 376.023 553.801 372.715C553.79 367.483 553.77 362.251 553.748 357.019C553.686 342.142 553.632 327.264 553.599 312.386C553.58 304.169 553.551 295.951 553.511 287.734C553.49 283.387 553.474 279.041 553.472 274.694C553.47 270.604 553.454 266.514 553.427 262.424C553.42 260.925 553.418 259.427 553.422 257.929C553.564 245.887 553.564 245.887 547.938 235.563C546.155 233.791 546.155 233.791 544 234C543.67 233.34 543.34 232.68 543 232C536.863 230.891 530.783 230.854 524.561 230.86C523.534 230.857 522.508 230.854 521.45 230.851C518.023 230.842 514.596 230.84 511.169 230.839C508.706 230.834 506.243 230.829 503.78 230.824C497.095 230.811 490.411 230.804 483.727 230.8C479.544 230.797 475.361 230.793 471.179 230.788C459.575 230.776 447.97 230.766 436.366 230.762C435.624 230.762 434.883 230.762 434.118 230.762C433.375 230.762 432.632 230.761 431.866 230.761C430.359 230.761 428.853 230.76 427.347 230.76C426.6 230.76 425.853 230.759 425.083 230.759C413.001 230.755 400.918 230.738 388.836 230.714C376.4 230.691 363.964 230.678 351.528 230.677C344.558 230.676 337.589 230.671 330.619 230.652C324.053 230.635 317.488 230.634 310.922 230.642C308.526 230.643 306.13 230.639 303.733 230.629C273.289 230.51 244.332 235.176 219 253Z" fill="url(#paint0_linear_8_65)"/>
<defs>
<linearGradient id="paint0_linear_8_65" x1="530.886" y1="230.367" x2="530.886" y2="784" gradientUnits="userSpaceOnUse">
<stop stop-color="#00C8FF"/>
<stop offset="1" stop-color="#322CCA"/>
</linearGradient>
</defs>
</svg>
